<?xml version="1.0" encoding="UTF-8"?>
<svg xmlns="http://www.w3.org/2000/svg" version="1.1" viewBox="0 0 1288.8 290.7">
  <defs>
    <style>
      .cls-1 {
        fill: #0068b7;
      }

      .cls-2 {
        fill: #fff;
      }

      .cls-3 {
        fill: #e8380d;
      }
    </style>
  </defs>
  <!-- Generator: Adobe Illustrator 28.7.1, SVG Export Plug-In . SVG Version: 1.2.0 Build 142)  -->
  <g>
    <g id="_レイヤー_1" data-name="レイヤー_1">
      <g id="_レイヤー_1-2" data-name="_レイヤー_1">
        <g id="_グループ_1105">
          <g id="_グループ_1094">
            <path id="_パス_726" class="cls-2" d="M1066.2,73.7c4-9.5-.3-20.4-9.8-24.5-9.5-4-20.4.3-24.5,9.8-4,9.5.3,20.4,9.8,24.5h0c9.5,4,20.4-.3,24.5-9.8Z"/>
            <path id="_パス_727" class="cls-2" d="M1116.6,75.5c-1-.9-2.1-1.6-3.3-2.2-6.4-2.8-13.8.2-16.5,6.5-2.8,6.4.2,13.8,6.5,16.5,3.4,1.5,7.4,1.4,10.7-.3,1.1,1.8,2.3,3.7,3.7,5.5,8.7,11.7,19.1,18.8,23.2,15.7s.4-15.1-8.2-26.8c-5.3-7.2-11.3-12.6-16-15h0Z"/>
            <path id="_パス_728" class="cls-2" d="M1105.5,146.5c-4.4-2.5-11-1.3-23.3,6.2-17.4,10.6-39.5,29.7-35,36.9s33.6,0,51-10.6c0,0,.2-.1.3-.2,2.6,5,6,10.9,10.3,18,9.5,15.9,21.2,33.6,32.2,49.2-9.2,5.4-19,9.5-29.3,12.4,6.3-3.1,12.3-7,17.7-11.6l-2.1-2.5c-9.9,8.5-21.8,14.4-34.6,17.3,5.6-3.7,11-9.3,15.6-16.7l-2.8-1.8c-7.4,11.8-16.6,18.8-25.4,19.9v-24.5h-3.3v24.6h-.8c-14.7-1.3-28.6-17.7-38.3-45.4l-3.1,1.1c.8,2.4,1.7,4.6,2.6,6.8h-25.6c-13.7-18.5-23.2-42.6-26.4-69.7l-3.3.4c1,8.3,2.5,16.5,4.7,24.6h-26.4c-5-13.5-7.6-27.7-7.8-42h14.8v-3.3h-14.8c0-2.5,0-5,.3-7.5l-10.4-10.1c-9.8,67.2,31.8,133.1,99,151.6,35.9,9.9,74.3,4.8,106.2-14.3,15.7,21.4,29.1,37,32,35.3,5.8-3.5-20.8-66.4-46.2-108.9-15.3-25.5-22.9-33.7-28.1-35.2h.3ZM1038.6,228.9c6.6,15.3,14.7,26.4,23.6,32.4-18.2-4.3-34.8-15.8-48-32.4h24.4ZM987.6,184.2c4.2,14.8,10.8,28.7,19.5,41.4h-18.5c-11.6-11.9-20.8-25.9-27-41.4h26ZM991.9,228.9h17.5c9.7,12.9,21.5,23,34.5,29.5-19.5-5.5-37.4-15.6-52.1-29.5h0Z"/>
            <path id="_パス_729" class="cls-2" d="M1032.9,200.1c-1.9,4.5-2.9,8.4,18.8,17.7,21.7,9.3,63,22.8,64.9,18.3s-36.3-25.4-57.9-34.6-23.9-5.9-25.8-1.4Z"/>
            <path id="_パス_730" class="cls-2" d="M1252.2,56.1h-.9c-1.5,31-5.6,35.1-36.6,36.6l-.2.9c31,1.5,35.1,5.6,36.6,36.6h.9c1.5-31,5.6-35.1,36.6-36.6l.2-.9c-31-1.5-35.1-5.6-36.6-36.6Z"/>
            <path id="_パス_731" class="cls-2" d="M987.7,134.7l-50.9-53.1c-.3-.3-.7-.7-1.1-1.1-2.3-2-4.1-4.4-5.5-7.1-1.9-4.4-5.7-5.6-8.2-6.4-1.4-.5-2.3-.8-2.6-1.2-.4-.7-.7-1.5-.9-2.3-.9-2.6-2.4-7.1-7.8-8.4-1.3-.3-3.3-1.7-5-9.9l-9.1,1.9c1.5,6.9,4.1,15.1,11.8,17,.3,0,.5,0,1.2,2.4.4,1.4,1,2.8,1.8,4.1,2.1,3.4,5.5,4.5,7.7,5.2,1.9.6,2.3.8,2.5,1.2,1.8,3.8,4.3,7.2,7.5,10.1l51.7,53.9,6.7-6.4h.2Z"/>
            <path id="_パス_732" class="cls-2" d="M979.9,16c-1.6,5.3,1.4,8.9,3.2,11,.6.6,1.1,1.3,1.5,2,.2.5,0,1.4-.3,2.9-.6,2.6-1.5,6.5,1.2,10.3,1.6,2.5,2.8,5.4,3.3,8.3,0,.5.2,1,.4,1.5l8.7,31.8c-3.9-.3-7.4,2.7-7.7,6.6s2.7,7.4,6.6,7.7c1.6,0,3.3-.3,4.6-1.3l7.1,26.1,7.4-2c1.2,1.3,2.4,2.5,3.6,3.6l-11,3,9.5,36.4-25.2-26.3-9,8.2,37.1,37.4,13.1-7.4-13.2-50.2c3.8,3.3,7.4,5.3,10.1,5.8,9.2,3.9,37.4-3.7,44.8-6.6,8.4-3.4,12.5-13,9-21.5-3.4-8.4-12.9-12.4-21.3-9.1-5.7,2.3-21.2,13.4-29.7,23.1-2-4.7-4.6-9.2-7.7-13.3-5.9-7.9-12.5-13.7-17.5-15.6l-10.6-38.8-.3-1.3c-.8-4.1-2.4-8.1-4.8-11.6-.2-.3-.2-.9.3-2.8.5-2.3,1.4-5.7-.5-9.3-.7-1.3-1.6-2.6-2.6-3.7-1.5-1.8-1.5-2-1.4-2.3,2.2-7.3-2.9-13.3-8.8-18.7l-6.3,6.8c6.3,5.8,6.5,8.1,6.2,9.2h.2Z"/>
            <path id="_パス_733" class="cls-3" d="M1142.8,127.2c-4.2,1.8,2.6,3.6,9.9,5.3-5.8,6.8-8.6,16.4-9.2,26.6,30.6-1.5,34.8-5.6,36.3-35.8-4.2-.6-8.5-.5-12.6.4-2.6.6-5.1,1.5-7.4,2.8-3-4.7-3.2-8.4-3.7-11.6-.5-3.8-3.3-.5-3.9,2.5s.3,3.1-3.6,2-6.8.9-3.4,3.6,2.9,1.8-2.4,4.1h0Z"/>
            <path id="_パス_734" class="cls-2" d="M1214.8,141.5c1.6-61.4-38.6-118.8-100.4-135.9-38.6-10.7-79.8-3.9-113,18.5l2.3,12.4c11.7-8.6,24.8-15.1,38.7-19.2-13.4,7.1-25.6,18-35.6,32.3l2.7,1.9c14.7-21.1,33.7-34.5,54.4-38.6h.8c-8.5,4.9-16.4,14.4-23.1,27.9l3,1.5c9-18.4,20.3-28.9,32-29.8v26.1h3.3V12.4c17.3,1.3,33.6,24,43,59.9l3.2-.8c-1.9-7.5-4.3-14.8-7.2-21.9h26c9,12.6,15.7,26.5,20,41.4h-18.4v3.3h19.3c2,7.4,3.5,14.9,4.5,22.5l3.3-.4c-1-7.4-2.4-14.8-4.3-22h26.2c4.5,12.3,7.1,25.2,7.7,38.3l11.5,9v-.2ZM1163.9,46.2h-17.2c-9.3-12.4-20.5-22.3-32.8-28.8,18.7,5.6,35.8,15.4,50,28.8ZM1117.7,46.2c-7-16-15.6-27.4-25.1-33.1,19.1,4,36.4,15.8,50,33.1h-24.9ZM1168.5,90.9c-4.2-14.8-10.7-28.7-19.4-41.4h18.2c11.7,11.9,20.9,25.9,27.1,41.4h-25.9,0Z"/>
            <path id="_パス_735" class="cls-3" d="M1203.2,132c-6.9-4.3-14.5-7.3-22.6-8.6,1.5,30.2,5.8,34.2,36.5,35.7l-.2.9c-31,1.5-35.1,5.6-36.6,36.6h-.9c-1.5-30.9-5.5-35.1-36.2-36.6-.3,6.9.3,13.7,1.8,20.4,5.1,22.7,27.7,37,50.4,31.9s37-27.7,31.9-50.4c-1.7-7.5-6.4-14.7-12.7-20.9-3.6-3.3-7.5-6.3-11.5-9h0Z"/>
          </g>
          <g id="_グループ_1104">
            <g id="_グループ_1093">
              <g id="_グループ_1091">
                <path id="_パス_707" class="cls-2" d="M63,28.9c-5-3-11.2-7.2-20.5-7.2s-9.3,2.7-9.3,5.2c0,11.3,44.9,15.1,44.9,45.4s-18.8,32.6-48.3,32.6-14.3-1.7-20.3-1.7-5.9.7-8.7,1.7v-33.6c7.2,6.6,14.9,11.8,26.5,11.8s17.6-4.7,17.6-11.7c0-16.1-44.9-18.9-44.9-43.2S13.9,0,36.6,0s13.1,1.7,18.9,1.7S60.5,1.6,62.7,0h.4v28.9h-.1Z"/>
                <path id="_パス_708" class="cls-2" d="M97.1,102.6c3.7-1.6,4.8-5.1,4.8-10.4V0c2.8,1.8,6.1,2.7,9.5,2.7C117.6,2.7,129.8,0,139.2,0,173.7,0,191.8,18.8,191.8,36.5s-20.1,36.2-50.7,36.2-4.9,0-7.3-.4v19.9c0,5.4,1.2,8.9,4.8,10.4h-41.6,0ZM133.8,48.6c2,.6,4.1.9,6.2.8,10.8,0,18.6-4.5,18.6-13.1s-7.7-13.1-18.6-13.1-4.2.2-6.2.9v24.5Z"/>
                <path id="_パス_709" class="cls-2" d="M355.1,52.5c0,30.2-34.8,52.5-74.3,52.5s-74.3-22.3-74.3-52.5S241.3,0,280.8,0s74.3,22.3,74.3,52.5h0ZM239.8,52.5c0,14.8,15.3,29.2,41,29.2s41-14.4,41-29.2-15.3-29.2-41-29.2-41,14.4-41,29.2h0Z"/>
                <path id="_パス_710" class="cls-2" d="M492.4,81.1c0,5.1.8,6.8,4.2,8.7-14.1,9.9-32.1,15.1-54.9,15.1-40.4,0-73.5-22.4-73.5-52.5S401.3,0,441.7,0s19.1,2.8,23.4,2.8S471,1.8,473.4,0v32.7c-8.7-5.6-17.8-9.4-31.7-9.4-22.8,0-40.2,10.7-40.2,29.2s17.6,29.2,40.2,29.2,12.7-.8,18.8-2.5v-14.8h-26.7c-4.8,0-7,1.6-9.7,3.7v-30.6c2.7,2.1,4.8,3.7,9.7,3.7h58.6v40h0Z"/>
                <path id="_パス_711" class="cls-2" d="M655.8,52.5c0,30.2-34.8,52.5-74.3,52.5s-74.3-22.3-74.3-52.5S542.1,0,581.5,0s74.3,22.3,74.3,52.5ZM540.5,52.5c0,14.8,15.3,29.2,41,29.2s41-14.4,41-29.2-15.3-29.2-41-29.2-41,14.4-41,29.2h0Z"/>
                <path id="_パス_712" class="cls-2" d="M737.4,50.1h.4l23.4-47.8h31.9c-1.5,1.6-2.4,3.6-2.5,5.8,0,2.7.4,5.3,1,7.9l15.7,74c1.2,5.1,3.9,10.2,6.8,12.7h-41.8c1.5-1.3,3.7-2.8,3.7-5.5s0-4.1-.4-6.2l-7-47.9h-.4l-30.4,61.9h-1.6l-30.9-61.9h-.4l-6,48.8c-.3,1.8-.4,3.6-.4,5.4,0,2.7,2.1,4.2,3.7,5.5h-41.6c2.9-2.5,5.4-7.6,6.6-12.7l15.9-74c.6-2.6.9-5.2,1-7.9,0-2.2-1-4.2-2.5-5.8h32.9l23,47.8h-.1Z"/>
                <path id="_パス_713" class="cls-2" d="M830.8,12.7c0-5.4-1.2-8.9-4.8-10.4h41.6c-3.7,1.6-4.8,5.1-4.8,10.4v79.5c0,5.4,1.2,8.9,4.8,10.4h-41.6c3.7-1.6,4.8-5.1,4.8-10.4V12.7Z"/>
              </g>
              <g id="_グループ_1092">
                <path id="_パス_714" class="cls-2" d="M80.9,198.3c-.4.7-.8,1.5-1,2.2,0,.7.5,1.3,1,1.8h-16.8l-10-21.6h-.2l-7,17.2c-.4.8-.7,1.7-.9,2.6,0,.7.5,1.3,1,1.8h-16.5l-26.3-51.7C3.1,148.6,1.7,146.8,0,145.2h24.7c-1.1.7-2.1,1.4-2.1,2.6.1,1.1.4,2.1,1,3l14.1,30.6h.2l6.9-17-7.9-14.5c-.9-1.7-2-3.3-3.3-4.7h24.3c-1.1.7-2.1,1.4-2.1,2.6.3,1.1.7,2.1,1.2,3l13.4,30.9h.3l14.6-30.9c.5-1,1-2,1.2-3,0-1.1-.8-1.8-1.9-2.6h24.6c-1.6,1.1-2.9,2.5-3.8,4.2l-24.6,48.8h0Z"/>
                <path id="_パス_715" class="cls-2" d="M190.1,173.8c0,17.2-19.8,29.8-42.2,29.8s-42.2-12.7-42.2-29.8,19.8-29.8,42.2-29.8,42.2,12.7,42.2,29.8ZM124.6,173.8c0,8.4,8.7,16.6,23.3,16.6s23.3-8.2,23.3-16.6-8.7-16.6-23.3-16.6-23.3,8.2-23.3,16.6h0Z"/>
                <path id="_パス_716" class="cls-2" d="M197.9,144c1.6,1,3.5,1.6,5.4,1.5,3.5,0,10.4-1.5,15.8-1.5,17.5,0,27.1,8.3,27.1,18.6s-2,11.1-9.2,11.8v.2c12.6,1.9,18.8,13.5,21.1,22.4.4,2.3,1.8,4.3,3.8,5.5h-25.2c1-1.2,1.6-2.8,1.4-4.3,0-9.9-10-15.9-22.1-18.4v16.8c0,3,.7,5.1,2.8,5.9h-23.6c2.1-.9,2.7-2.9,2.7-5.9v-52.6ZM216.1,168.6h2.8c4.8,0,8.5-2.7,8.5-6.2s-3.6-6.2-8.5-6.2-1.9,0-2.8,0v12.4Z"/>
                <path id="_パス_717" class="cls-2" d="M265.1,202.3c2.1-.9,2.8-2.9,2.8-5.9v-45.2c0-3-.7-5-2.8-5.9h23.6c-2.1.9-2.7,2.9-2.7,5.9v38.8h15.5c3,.1,5.9-.9,8.2-2.8v15.2h-44.6Z"/>
                <path id="_パス_718" class="cls-2" d="M318.9,144c1.3,1.1,3,1.6,4.7,1.6,3.6,0,10.6-1.6,17.5-1.6,19.5,0,40.3,11.4,40.3,29.4s-15.2,28.9-42.6,28.9h-22.7c2.1-.9,2.8-2.9,2.8-5.9v-52.4h0ZM337,189.1c15.4,0,25.4-5.1,25.4-15.7s-12.4-16.2-25.4-16.2v31.9Z"/>
                <path id="_パス_719" class="cls-2" d="M464.1,203.6c-1-.6-2.1-.9-3.3-1-2.1,0-8.7,1-14.7,1-24.5,0-41.8-12.8-41.8-29.8s17.3-29.8,41.8-29.8,10.9,1.6,13.3,1.6,3.4-.6,4.7-1.6v18.6c-5.3-3.6-11.6-5.5-18-5.4-13,0-22.9,6.1-22.9,16.6s10,16.6,22.9,16.6c6.3.1,12.6-1.5,18-4.8v18h0Z"/>
                <path id="_パス_720" class="cls-2" d="M534.1,145.3c-2.1.9-2.8,2.9-2.8,5.9v33.4c0,12.8-12.3,19.1-27.3,19.1s-27.3-6.3-27.3-19.1v-33.4c0-3-.7-5-2.8-5.9h23.6c-2.1.9-2.7,2.9-2.7,5.9v32.1c0,4.3,4.3,7.1,9.1,7.1s9.1-2.7,9.1-7.1v-32.1c0-3-.7-5-2.7-5.9h23.8Z"/>
                <path id="_パス_721" class="cls-2" d="M541.9,202.3c2.1-.9,2.8-2.9,2.8-5.9v-52.4c1.6,1,3.5,1.6,5.4,1.5,3.5,0,10.5-1.5,15.8-1.5,19.6,0,29.9,10.7,29.9,20.8s-11.4,20.6-28.8,20.6-2.8,0-4.2-.2v11.3c0,3,.7,5.1,2.7,5.9h-23.6ZM562.8,171.6c1.1.3,2.3.5,3.5.5,6.2,0,10.6-2.6,10.6-7.5s-4.4-7.5-10.6-7.5-2.4.1-3.5.5v14Z"/>
                <path id="_パス_722" class="cls-2" d="M610.6,202.3l29.8-25.1c6.1-5.1,11.8-8.7,11.8-13.9s-4.2-7-9.7-7-9.7,2.7-9.7,7,.4,2.8,1.1,4h-21.9c1.1-2.3,2.1-4.7,2.8-7.1,1.9-5.5,7-16.3,28.4-16.3s28.2,8.9,28.2,20.3-9,15-18.1,22l-5.5,4.2h18.4c2,.1,3.9-.8,5.1-2.4v14.2h-60.7Z"/>
                <path id="_パス_723" class="cls-2" d="M682.5,188.2c-1.3-3.7-1.8-9.6-1.8-14.4s.4-10.7,1.8-14.4c2.9-8.1,13.1-15.4,28.3-15.4s25.4,7.3,28.3,15.4c1.3,3.7,1.8,9.6,1.8,14.4s-.4,10.7-1.8,14.4c-2.9,8.1-13.1,15.4-28.3,15.4s-25.4-7.3-28.3-15.4ZM698.6,180.2c0,6.4,4.7,10.4,12.2,10.4s12.2-4,12.2-10.4v-12.8c0-6.4-4.7-10.4-12.2-10.4s-12.2,4-12.2,10.4v12.8Z"/>
                <path id="_パス_724" class="cls-2" d="M745,202.3l29.8-25.1c6-5.1,11.8-8.7,11.8-13.9s-4.2-7-9.7-7-9.7,2.7-9.7,7,.4,2.8,1.1,4h-21.9c1.1-2.3,2-4.7,2.7-7.1,1.9-5.5,7-16.3,28.4-16.3s28.2,8.9,28.2,20.3-9,15-18.1,22l-5.5,4.2h18.4c2,.1,3.9-.8,5.1-2.4v14.2h-60.6Z"/>
              </g>
            </g>
            <g id="_グループ_1098">
              <rect class="cls-2" x="2" y="231" width="870" height="51.2"/>
              <g>
                <path class="cls-1" d="M37.7,268.2v-22.2h-4.2v-3.5h12.2v3.5h-4.2v22.2h-3.7Z"/>
                <path class="cls-1" d="M47,268.2v-25.6h3.7v9.1h0c.4-.6.8-1,1.4-1.4s1.2-.6,2.1-.6.9,0,1.4.2c.5.2.9.4,1.2.8.4.4.6.8.9,1.4.2.6.3,1.3.3,2.1v14h-3.7v-12.6c0-.7-.2-1.2-.5-1.6-.3-.4-.8-.6-1.3-.6s-1.2.2-1.4.6c-.3.4-.4,1.1-.4,1.9v12.3h-3.7Z"/>
                <path class="cls-1" d="M71.6,260.4h-7.3v2.5c0,.6.2,1,.5,1.3.3.3.8.5,1.3.5s1.2-.2,1.4-.6c.2-.4.4-.8.4-1.2h3.7c0,1.6-.5,2.9-1.5,3.9-.5.5-1.1.9-1.7,1.2s-1.4.4-2.3.4-2.1-.2-2.9-.7c-.8-.5-1.4-1.1-1.9-1.9-.3-.5-.4-1-.5-1.7,0-.6-.1-1.3-.1-2.1v-6c0-.7,0-1.4.1-2.1,0-.6.3-1.2.5-1.7.4-.8,1-1.4,1.9-1.9.8-.5,1.8-.7,2.9-.7s1.6.1,2.3.4c.7.3,1.3.7,1.7,1.2,1,1.1,1.4,2.4,1.4,4.1v5ZM64.3,257.6h3.6v-2.1c0-.7-.2-1.2-.5-1.6-.3-.3-.8-.5-1.3-.5s-1,.2-1.3.5c-.3.3-.5.9-.5,1.6v2.1Z"/>
                <path class="cls-1" d="M81,268.2v-18.3h3.7v1.8h0c.4-.6.8-1,1.4-1.4s1.2-.6,2.1-.6,1.5.2,2,.6c.5.4,1,.8,1.3,1.3.5-.5,1-.9,1.5-1.3.6-.4,1.3-.5,2.3-.5s.9,0,1.4.2c.5.2.9.4,1.3.8s.7.8.9,1.4c.2.6.4,1.3.4,2.1v14h-3.7v-12.6c0-.7-.2-1.2-.5-1.6-.3-.4-.8-.6-1.3-.6s-1.2.2-1.4.6c-.3.4-.4,1.1-.4,1.9v12.3h-3.7v-12.6c0-.7-.2-1.2-.5-1.6-.3-.4-.8-.6-1.3-.6s-1.2.2-1.4.6c-.3.4-.4,1.1-.4,1.9v12.3h-3.7Z"/>
                <path class="cls-1" d="M102,256.1c0-.7,0-1.4.1-2.1,0-.6.3-1.2.5-1.7.4-.8,1-1.4,1.9-1.9.8-.5,1.8-.7,2.9-.7s2.1.2,2.9.7c.8.5,1.4,1.1,1.9,1.9.3.5.4,1,.5,1.7,0,.6.1,1.3.1,2.1v6c0,.7,0,1.4-.1,2.1,0,.6-.3,1.2-.5,1.7-.4.8-1.1,1.4-1.9,1.9-.8.5-1.8.7-2.9.7s-2.1-.2-2.9-.7c-.8-.5-1.4-1.1-1.9-1.9-.3-.5-.4-1-.5-1.7,0-.6-.1-1.3-.1-2.1v-6ZM105.7,262.6c0,.7.2,1.2.5,1.6.3.3.8.5,1.3.5s1-.2,1.3-.5c.3-.3.5-.9.5-1.6v-7.2c0-.7-.2-1.2-.5-1.6-.3-.3-.8-.5-1.3-.5s-1,.2-1.3.5c-.3.3-.5.9-.5,1.6v7.2Z"/>
                <path class="cls-1" d="M122.3,255c0-.6-.2-1.1-.6-1.4-.4-.3-.8-.5-1.3-.5s-1,.2-1.3.6-.5.8-.5,1.3,0,.7.3,1c.2.3.6.6,1.3.9l2.2.9c1.4.5,2.3,1.2,2.8,2.2.5.9.8,1.9.8,3s-.1,1.5-.4,2.1c-.3.7-.7,1.2-1.1,1.7s-1.1.9-1.7,1.2c-.7.3-1.4.4-2.2.4-1.5,0-2.7-.5-3.7-1.4-.5-.5-.9-1-1.2-1.7-.3-.7-.5-1.5-.5-2.4h3.5c0,.5.2,1,.5,1.4.3.4.8.6,1.5.6s1-.2,1.4-.5.6-.8.6-1.5-.1-.9-.4-1.3c-.3-.4-.7-.7-1.4-.9l-1.8-.6c-1.2-.4-2.1-1.1-2.7-1.9-.7-.9-1-1.9-1-3.1s.1-1.5.4-2.1c.3-.7.7-1.2,1.2-1.7.5-.5,1-.8,1.7-1.1.6-.3,1.3-.4,2.1-.4s1.4.1,2.1.4c.6.3,1.2.6,1.6,1.1.5.5.8,1,1.1,1.7.3.7.4,1.4.4,2.1h-3.5Z"/>
                <path class="cls-1" d="M128.3,249.9v-5.5h3.7v5.5h2.3v2.9h-2.3v10.1c0,.4,0,.8.1,1,0,.2.2.4.4.5s.4.2.7.2c.3,0,.6,0,1,0v3.5h-1.5c-.8,0-1.5-.1-2.1-.4-.6-.3-1-.6-1.3-1-.3-.4-.6-.9-.7-1.4-.2-.5-.2-1-.2-1.5v-11.1h-1.8v-2.9h1.8Z"/>
                <path class="cls-1" d="M153,260.4h-7.3v2.5c0,.6.2,1,.5,1.3.3.3.8.5,1.3.5s1.2-.2,1.4-.6c.2-.4.4-.8.4-1.2h3.7c0,1.6-.5,2.9-1.5,3.9-.5.5-1.1.9-1.7,1.2s-1.4.4-2.3.4-2.1-.2-2.9-.7c-.8-.5-1.4-1.1-1.9-1.9-.3-.5-.4-1-.5-1.7,0-.6-.1-1.3-.1-2.1v-6c0-.7,0-1.4.1-2.1,0-.6.3-1.2.5-1.7.4-.8,1-1.4,1.9-1.9.8-.5,1.8-.7,2.9-.7s1.6.1,2.3.4c.7.3,1.3.7,1.7,1.2,1,1.1,1.4,2.4,1.4,4.1v5ZM145.7,257.6h3.6v-2.1c0-.7-.2-1.2-.5-1.6-.3-.3-.8-.5-1.3-.5s-1,.2-1.3.5c-.3.3-.5.9-.5,1.6v2.1Z"/>
                <path class="cls-1" d="M162.6,268.2v-1.9h0c-.5.7-1,1.2-1.5,1.5-.5.4-1.2.5-2.1.5s-.9,0-1.3-.2c-.4-.1-.9-.4-1.3-.7-.4-.3-.7-.8-1-1.5s-.4-1.5-.4-2.5,0-1.9.3-2.7c.2-.8.5-1.4.9-2,.4-.5,1-.9,1.8-1.1s1.7-.4,2.8-.4h.4c.1,0,.3,0,.4,0,.1,0,.3,0,.4,0s.3,0,.5,0v-1.9c0-.6-.1-1.1-.4-1.5-.3-.4-.7-.6-1.4-.6s-.9.2-1.3.5c-.4.3-.7.8-.8,1.4h-3.6c0-1.6.6-3,1.7-4s1.1-.9,1.7-1.1c.7-.3,1.4-.4,2.3-.4s1.5.1,2.2.4c.7.2,1.3.6,1.8,1.1.5.5.9,1.1,1.2,1.8.3.7.4,1.6.4,2.5v12.7h-3.7ZM162.6,260.3c-.4,0-.7-.1-1-.1-.8,0-1.5.2-2,.6-.6.4-.8,1.1-.8,2s.2,1.3.5,1.7c.3.4.8.6,1.4.6s1.1-.2,1.5-.6c.3-.4.5-1,.5-1.7v-2.5Z"/>
                <path class="cls-1" d="M169,268.2v-18.3h3.7v1.9c.7-.7,1.5-1.2,2.2-1.6s1.6-.6,2.7-.6v3.9c-.4-.1-.7-.2-1.1-.2s-.8,0-1.2.2-.8.4-1.2.7c-.4.3-.7.7-.9,1.2-.2.5-.4,1.1-.4,1.9v10.8h-3.7Z"/>
                <path class="cls-1" d="M179,249.9v-5.5h3.7v5.5h2.3v2.9h-2.3v10.1c0,.4,0,.8.1,1,0,.2.2.4.4.5s.4.2.7.2c.3,0,.6,0,1,0v3.5h-1.5c-.8,0-1.5-.1-2.1-.4-.6-.3-1-.6-1.3-1-.3-.4-.6-.9-.7-1.4-.2-.5-.2-1-.2-1.5v-11.1h-1.8v-2.9h1.8Z"/>
                <path class="cls-1" d="M186.3,268.2v-25.6h3.7v9.1h0c.4-.6.8-1,1.4-1.4s1.2-.6,2.1-.6.9,0,1.4.2c.5.2.9.4,1.2.8.4.4.6.8.9,1.4.2.6.3,1.3.3,2.1v14h-3.7v-12.6c0-.7-.2-1.2-.5-1.6-.3-.4-.8-.6-1.3-.6s-1.2.2-1.4.6c-.3.4-.4,1.1-.4,1.9v12.3h-3.7Z"/>
                <path class="cls-1" d="M200.4,260v-3.7h10.8v3.7h-10.8Z"/>
                <path class="cls-1" d="M214.8,268.2v-15.4h-1.8v-2.9h1.8v-2.5c0-.9.1-1.6.4-2.2.3-.6.6-1.1,1.1-1.5.4-.4.9-.7,1.5-.9.6-.2,1.1-.3,1.7-.3h1.7v3.5h-1.7c-.7,0-1.1.4-1.1,1.3v2.7h2.7v2.9h-2.7v15.4h-3.7Z"/>
                <path class="cls-1" d="M222.3,268.2v-18.3h3.7v1.9c.7-.7,1.5-1.2,2.2-1.6s1.6-.6,2.7-.6v3.9c-.4-.1-.7-.2-1.1-.2s-.8,0-1.2.2-.8.4-1.2.7c-.4.3-.7.7-.9,1.2-.2.5-.4,1.1-.4,1.9v10.8h-3.7Z"/>
                <path class="cls-1" d="M232.3,246.2v-3.7h3.7v3.7h-3.7ZM232.3,268.2v-18.3h3.7v18.3h-3.7Z"/>
                <path class="cls-1" d="M249.7,260.4h-7.3v2.5c0,.6.2,1,.5,1.3.3.3.8.5,1.3.5s1.2-.2,1.4-.6c.2-.4.4-.8.4-1.2h3.7c0,1.6-.5,2.9-1.5,3.9-.5.5-1.1.9-1.7,1.2s-1.4.4-2.3.4-2.1-.2-2.9-.7c-.8-.5-1.4-1.1-1.9-1.9-.3-.5-.4-1-.5-1.7,0-.6-.1-1.3-.1-2.1v-6c0-.7,0-1.4.1-2.1,0-.6.3-1.2.5-1.7.4-.8,1-1.4,1.9-1.9.8-.5,1.8-.7,2.9-.7s1.6.1,2.3.4c.7.3,1.3.7,1.7,1.2,1,1.1,1.4,2.4,1.4,4.1v5ZM242.4,257.6h3.6v-2.1c0-.7-.2-1.2-.5-1.6-.3-.3-.8-.5-1.3-.5s-1,.2-1.3.5c-.3.3-.5.9-.5,1.6v2.1Z"/>
                <path class="cls-1" d="M252.4,268.2v-18.3h3.7v1.8h0c.4-.6.8-1,1.4-1.4s1.2-.6,2.1-.6.9,0,1.4.2c.5.2.9.4,1.2.8.4.4.6.8.9,1.4.2.6.3,1.3.3,2.1v14h-3.7v-12.6c0-.7-.2-1.2-.5-1.6-.3-.4-.8-.6-1.3-.6s-1.2.2-1.4.6c-.3.4-.4,1.1-.4,1.9v12.3h-3.7Z"/>
                <path class="cls-1" d="M273.7,268.2v-1.7c-.2.3-.5.5-.7.7-.2.2-.5.4-.7.6-.3.2-.6.3-.9.4s-.7.1-1.2.1c-1.5,0-2.6-.6-3.2-1.7-.2-.4-.4-.9-.5-1.5,0-.6-.1-1.4-.1-2.4v-6.9c0-1.3,0-2.3.1-2.9.1-1.2.7-2.1,1.7-2.7.5-.3,1.1-.5,2.1-.5s1.4.2,1.9.5c.6.3,1,.8,1.5,1.4h0v-9h3.7v25.6h-3.7ZM270,262.2c0,.7.1,1.3.4,1.8s.7.7,1.4.7,1-.2,1.3-.6c.3-.4.5-1,.5-1.6v-7.1c0-.6-.2-1-.5-1.4-.3-.4-.8-.6-1.3-.6s-1.2.2-1.4.6c-.3.4-.4.9-.4,1.5v6.7Z"/>
                <path class="cls-1" d="M280.2,242.6h3.7v20.5c0,.7.1,1.2.4,1.4s.7.4,1.4.5v3.5c-.8,0-1.6,0-2.3-.2-.7-.1-1.2-.4-1.7-.8-.5-.4-.8-.9-1.1-1.5s-.4-1.5-.4-2.6v-20.7Z"/>
                <path class="cls-1" d="M285.5,249.9h3.9l2.5,11.4h0l2.5-11.4h3.8l-5.3,21.4c-.2.8-.5,1.5-.8,2-.3.5-.8,1-1.2,1.3-.5.3-.9.6-1.5.7-.5.1-1,.2-1.6.2h-1v-3.5h.8c.4,0,.7,0,.9-.1.3,0,.5-.3.7-.6.2-.3.4-.8.5-1.4s.4-1.5.6-2.5l-5-17.4Z"/>
                <path class="cls-1" d="M313.1,255c0-.6-.2-1.1-.6-1.4-.4-.3-.8-.5-1.3-.5s-1,.2-1.3.6-.5.8-.5,1.3,0,.7.3,1c.2.3.6.6,1.3.9l2.2.9c1.4.5,2.3,1.2,2.8,2.2.5.9.8,1.9.8,3s-.1,1.5-.4,2.1c-.3.7-.7,1.2-1.1,1.7s-1.1.9-1.7,1.2c-.7.3-1.4.4-2.2.4-1.5,0-2.7-.5-3.7-1.4-.5-.5-.9-1-1.2-1.7-.3-.7-.5-1.5-.5-2.4h3.5c0,.5.2,1,.5,1.4.3.4.8.6,1.5.6s1-.2,1.4-.5.6-.8.6-1.5-.1-.9-.4-1.3c-.3-.4-.7-.7-1.4-.9l-1.8-.6c-1.2-.4-2.1-1.1-2.7-1.9-.7-.9-1-1.9-1-3.1s.1-1.5.4-2.1c.3-.7.7-1.2,1.2-1.7.5-.5,1-.8,1.7-1.1.6-.3,1.3-.4,2.1-.4s1.4.1,2.1.4c.6.3,1.2.6,1.6,1.1.5.5.8,1,1.1,1.7.3.7.4,1.4.4,2.1h-3.5Z"/>
                <path class="cls-1" d="M319.1,275.6v-25.6h3.7v1.7c.5-.5.9-1,1.4-1.3.5-.4,1.2-.5,2.1-.5,1.5,0,2.6.6,3.2,1.7.2.4.4.9.5,1.5s.1,1.4.1,2.4v6.9c0,1.3,0,2.3-.1,2.9-.1,1.2-.7,2.1-1.7,2.7-.5.3-1.2.5-2.1.5s-1.4-.2-1.9-.5c-.6-.3-1-.8-1.5-1.4h0v9h-3.7ZM326.4,255.9c0-.7-.1-1.3-.4-1.8-.3-.5-.7-.7-1.4-.7s-1,.2-1.3.6c-.3.4-.5,1-.5,1.6v7.1c0,.6.2,1,.5,1.4.3.4.8.6,1.3.6s1.2-.2,1.4-.6c.3-.4.4-.9.4-1.5v-6.7Z"/>
                <path class="cls-1" d="M332.8,256.1c0-.7,0-1.4.1-2.1,0-.6.3-1.2.5-1.7.4-.8,1-1.4,1.9-1.9.8-.5,1.8-.7,2.9-.7s2.1.2,2.9.7c.8.5,1.4,1.1,1.9,1.9.3.5.4,1,.5,1.7,0,.6.1,1.3.1,2.1v6c0,.7,0,1.4-.1,2.1,0,.6-.3,1.2-.5,1.7-.4.8-1.1,1.4-1.9,1.9-.8.5-1.8.7-2.9.7s-2.1-.2-2.9-.7c-.8-.5-1.4-1.1-1.9-1.9-.3-.5-.4-1-.5-1.7,0-.6-.1-1.3-.1-2.1v-6ZM336.5,262.6c0,.7.2,1.2.5,1.6.3.3.8.5,1.3.5s1-.2,1.3-.5c.3-.3.5-.9.5-1.6v-7.2c0-.7-.2-1.2-.5-1.6-.3-.3-.8-.5-1.3-.5s-1,.2-1.3.5c-.3.3-.5.9-.5,1.6v7.2Z"/>
                <path class="cls-1" d="M346.4,268.2v-18.3h3.7v1.9c.7-.7,1.5-1.2,2.2-1.6s1.6-.6,2.7-.6v3.9c-.4-.1-.7-.2-1.1-.2s-.8,0-1.2.2-.8.4-1.2.7c-.4.3-.7.7-.9,1.2-.2.5-.4,1.1-.4,1.9v10.8h-3.7Z"/>
                <path class="cls-1" d="M356.4,249.9v-5.5h3.7v5.5h2.3v2.9h-2.3v10.1c0,.4,0,.8.1,1,0,.2.2.4.4.5s.4.2.7.2c.3,0,.6,0,1,0v3.5h-1.5c-.8,0-1.5-.1-2.1-.4-.6-.3-1-.6-1.3-1-.3-.4-.6-.9-.7-1.4-.2-.5-.2-1-.2-1.5v-11.1h-1.8v-2.9h1.8Z"/>
                <path class="cls-1" d="M370.5,246.2v-3.7h3.7v3.7h-3.7ZM370.5,268.2v-18.3h3.7v18.3h-3.7Z"/>
                <path class="cls-1" d="M377.2,268.2v-18.3h3.7v1.8h0c.4-.6.8-1,1.4-1.4s1.2-.6,2.1-.6.9,0,1.4.2c.5.2.9.4,1.2.8.4.4.6.8.9,1.4.2.6.3,1.3.3,2.1v14h-3.7v-12.6c0-.7-.2-1.2-.5-1.6-.3-.4-.8-.6-1.3-.6s-1.2.2-1.4.6c-.3.4-.4,1.1-.4,1.9v12.3h-3.7Z"/>
                <path class="cls-1" d="M415.6,249.9l-4.3,18.3h-3.2l-2-10.8h0l-2,10.8h-3.2l-4.3-18.3h3.9l2.2,11.3h0l2.1-11.3h2.9l1.9,11.3h0l2.2-11.3h3.9Z"/>
                <path class="cls-1" d="M417.2,268.2v-25.6h3.7v9.1h0c.4-.6.8-1,1.4-1.4s1.2-.6,2.1-.6.9,0,1.4.2c.5.2.9.4,1.2.8.4.4.6.8.9,1.4.2.6.3,1.3.3,2.1v14h-3.7v-12.6c0-.7-.2-1.2-.5-1.6-.3-.4-.8-.6-1.3-.6s-1.2.2-1.4.6c-.3.4-.4,1.1-.4,1.9v12.3h-3.7Z"/>
                <path class="cls-1" d="M431.2,246.2v-3.7h3.7v3.7h-3.7ZM431.2,268.2v-18.3h3.7v18.3h-3.7Z"/>
                <path class="cls-1" d="M441.8,262.9c0,.6.2,1,.5,1.3.3.3.8.5,1.3.5s1.2-.2,1.4-.6c.2-.4.4-.8.4-1.2h3.7c0,1.6-.5,2.9-1.5,3.9-.5.5-1.1.9-1.7,1.2s-1.4.4-2.3.4-2.1-.2-2.9-.7c-.8-.5-1.4-1.1-1.9-1.9-.3-.5-.4-1-.5-1.7,0-.6-.1-1.3-.1-2.1v-6c0-.7,0-1.4.1-2.1,0-.6.3-1.2.5-1.7.4-.8,1-1.4,1.9-1.9.8-.5,1.8-.7,2.9-.7s1.6.1,2.3.4c.7.3,1.3.7,1.7,1.2,1,1.1,1.4,2.5,1.4,4.2h-3.7c0-.7-.2-1.3-.5-1.6-.3-.3-.8-.5-1.3-.5s-1,.2-1.3.5c-.3.3-.5.9-.5,1.6v7.5Z"/>
                <path class="cls-1" d="M450.8,268.2v-25.6h3.7v9.1h0c.4-.6.8-1,1.4-1.4s1.2-.6,2.1-.6.9,0,1.4.2c.5.2.9.4,1.2.8.4.4.6.8.9,1.4.2.6.3,1.3.3,2.1v14h-3.7v-12.6c0-.7-.2-1.2-.5-1.6-.3-.4-.8-.6-1.3-.6s-1.2.2-1.4.6c-.3.4-.4,1.1-.4,1.9v12.3h-3.7Z"/>
                <path class="cls-1" d="M471.5,275.6v-25.6h3.7v1.7c.5-.5.9-1,1.4-1.3.5-.4,1.2-.5,2.1-.5,1.5,0,2.6.6,3.2,1.7.2.4.4.9.5,1.5s.1,1.4.1,2.4v6.9c0,1.3,0,2.3-.1,2.9-.1,1.2-.7,2.1-1.7,2.7-.5.3-1.2.5-2.1.5s-1.4-.2-1.9-.5c-.6-.3-1-.8-1.5-1.4h0v9h-3.7ZM478.8,255.9c0-.7-.1-1.3-.4-1.8-.3-.5-.7-.7-1.4-.7s-1,.2-1.3.6c-.3.4-.5,1-.5,1.6v7.1c0,.6.2,1,.5,1.4.3.4.8.6,1.3.6s1.2-.2,1.4-.6c.3-.4.4-.9.4-1.5v-6.7Z"/>
                <path class="cls-1" d="M485.5,246.2v-3.7h3.7v3.7h-3.7ZM485.5,268.2v-18.3h3.7v18.3h-3.7Z"/>
                <path class="cls-1" d="M496,262.9c0,.6.2,1,.5,1.3.3.3.8.5,1.3.5s1.2-.2,1.4-.6c.2-.4.4-.8.4-1.2h3.7c0,1.6-.5,2.9-1.5,3.9-.5.5-1.1.9-1.7,1.2s-1.4.4-2.3.4-2.1-.2-2.9-.7c-.8-.5-1.4-1.1-1.9-1.9-.3-.5-.4-1-.5-1.7,0-.6-.1-1.3-.1-2.1v-6c0-.7,0-1.4.1-2.1,0-.6.3-1.2.5-1.7.4-.8,1-1.4,1.9-1.9.8-.5,1.8-.7,2.9-.7s1.6.1,2.3.4c.7.3,1.3.7,1.7,1.2,1,1.1,1.4,2.5,1.4,4.2h-3.7c0-.7-.2-1.3-.5-1.6-.3-.3-.8-.5-1.3-.5s-1,.2-1.3.5c-.3.3-.5.9-.5,1.6v7.5Z"/>
                <path class="cls-1" d="M505,268.2v-25.6h3.7v15.3h0l4.4-8h3.7l-4.4,7.4,5.3,10.8h-4l-3.3-7.9-1.8,2.8v5.1h-3.7Z"/>
                <path class="cls-1" d="M519,246.2v-3.7h3.7v3.7h-3.7ZM519,268.2v-18.3h3.7v18.3h-3.7Z"/>
                <path class="cls-1" d="M525.7,268.2v-18.3h3.7v1.8h0c.4-.6.8-1,1.4-1.4s1.2-.6,2.1-.6.9,0,1.4.2c.5.2.9.4,1.2.8.4.4.6.8.9,1.4.2.6.3,1.3.3,2.1v14h-3.7v-12.6c0-.7-.2-1.2-.5-1.6-.3-.4-.8-.6-1.3-.6s-1.2.2-1.4.6c-.3.4-.4,1.1-.4,1.9v12.3h-3.7Z"/>
                <path class="cls-1" d="M543.4,270.3c0,.4.2.8.5,1.2s.8.6,1.4.6,1-.2,1.3-.6c.3-.4.4-.8.4-1.4v-3.6h0c-.4.6-.9,1.1-1.5,1.4-.6.3-1.2.5-2,.5-1.5,0-2.6-.6-3.2-1.7-.2-.4-.4-.9-.5-1.5,0-.6-.1-1.4-.1-2.4v-6.9c0-1.3,0-2.3.1-2.9.1-1.2.7-2.1,1.7-2.7.5-.3,1.1-.5,2.1-.5s.8,0,1.2.1c.3,0,.6.2.9.4.3.2.5.4.7.6.2.2.4.5.7.7v-1.7h3.7v20.5c0,.6-.1,1.3-.3,1.9-.2.6-.5,1.2-1,1.7-.5.5-1,1-1.7,1.3-.7.3-1.5.5-2.5.5s-1.1,0-1.7-.3-1.2-.5-1.7-.9c-.5-.4-1-1-1.3-1.6-.4-.7-.6-1.6-.7-2.6h3.7ZM543.4,262.6c0,.6.1,1.1.4,1.5.3.4.7.6,1.4.6s1-.2,1.3-.6.5-.8.5-1.4v-7.1c0-.7-.2-1.2-.5-1.6-.3-.4-.8-.6-1.3-.6s-1.1.2-1.4.7c-.3.5-.4,1.1-.4,1.8v6.7Z"/>
                <path class="cls-1" d="M571.4,249.9v18.3h-3.7v-1.8h0c-.4.6-.8,1-1.4,1.4s-1.2.6-2.1.6-.9,0-1.4-.2c-.5-.2-.9-.4-1.2-.8-.4-.4-.6-.8-.9-1.4s-.3-1.3-.3-2.1v-14h3.7v12.6c0,.7.2,1.2.5,1.6.3.4.8.6,1.3.6s1.2-.2,1.4-.6c.3-.4.4-1.1.4-1.9v-12.3h3.7Z"/>
                <path class="cls-1" d="M574.4,275.6v-25.6h3.7v1.7c.5-.5.9-1,1.4-1.3.5-.4,1.2-.5,2.1-.5,1.5,0,2.6.6,3.2,1.7.2.4.4.9.5,1.5s.1,1.4.1,2.4v6.9c0,1.3,0,2.3-.1,2.9-.1,1.2-.7,2.1-1.7,2.7-.5.3-1.2.5-2.1.5s-1.4-.2-1.9-.5c-.6-.3-1-.8-1.5-1.4h0v9h-3.7ZM581.8,255.9c0-.7-.1-1.3-.4-1.8-.3-.5-.7-.7-1.4-.7s-1,.2-1.3.6c-.3.4-.5,1-.5,1.6v7.1c0,.6.2,1,.5,1.4.3.4.8.6,1.3.6s1.2-.2,1.4-.6c.3-.4.4-.9.4-1.5v-6.7Z"/>
                <path class="cls-1" d="M595.1,249.9v-5.5h3.7v5.5h2.3v2.9h-2.3v10.1c0,.4,0,.8.1,1,0,.2.2.4.4.5s.4.2.7.2c.3,0,.6,0,1,0v3.5h-1.5c-.8,0-1.5-.1-2.1-.4-.6-.3-1-.6-1.3-1-.3-.4-.6-.9-.7-1.4-.2-.5-.2-1-.2-1.5v-11.1h-1.8v-2.9h1.8Z"/>
                <path class="cls-1" d="M602.5,268.2v-18.3h3.7v1.9c.7-.7,1.5-1.2,2.2-1.6s1.6-.6,2.7-.6v3.9c-.4-.1-.7-.2-1.1-.2s-.8,0-1.2.2-.8.4-1.2.7c-.4.3-.7.7-.9,1.2-.2.5-.4,1.1-.4,1.9v10.8h-3.7Z"/>
                <path class="cls-1" d="M619.2,268.2v-1.9h0c-.5.7-1,1.2-1.5,1.5-.5.4-1.2.5-2.1.5s-.9,0-1.3-.2c-.4-.1-.9-.4-1.3-.7-.4-.3-.7-.8-1-1.5s-.4-1.5-.4-2.5,0-1.9.3-2.7c.2-.8.5-1.4.9-2,.4-.5,1-.9,1.8-1.1s1.7-.4,2.8-.4h.4c.1,0,.3,0,.4,0,.1,0,.3,0,.4,0s.3,0,.5,0v-1.9c0-.6-.1-1.1-.4-1.5-.3-.4-.7-.6-1.4-.6s-.9.2-1.3.5c-.4.3-.7.8-.8,1.4h-3.6c0-1.6.6-3,1.7-4s1.1-.9,1.7-1.1c.7-.3,1.4-.4,2.3-.4s1.5.1,2.2.4c.7.2,1.3.6,1.8,1.1.5.5.9,1.1,1.2,1.8.3.7.4,1.6.4,2.5v12.7h-3.7ZM619.2,260.3c-.4,0-.7-.1-1-.1-.8,0-1.5.2-2,.6-.6.4-.8,1.1-.8,2s.2,1.3.5,1.7c.3.4.8.6,1.4.6s1.1-.2,1.5-.6c.3-.4.5-1,.5-1.7v-2.5Z"/>
                <path class="cls-1" d="M632.3,255c0-.6-.2-1.1-.6-1.4-.4-.3-.8-.5-1.3-.5s-1,.2-1.3.6-.5.8-.5,1.3,0,.7.3,1c.2.3.6.6,1.3.9l2.2.9c1.4.5,2.3,1.2,2.8,2.2.5.9.8,1.9.8,3s-.1,1.5-.4,2.1c-.3.7-.7,1.2-1.1,1.7s-1.1.9-1.7,1.2c-.7.3-1.4.4-2.2.4-1.5,0-2.7-.5-3.7-1.4-.5-.5-.9-1-1.2-1.7-.3-.7-.5-1.5-.5-2.4h3.5c0,.5.2,1,.5,1.4.3.4.8.6,1.5.6s1-.2,1.4-.5.6-.8.6-1.5-.1-.9-.4-1.3c-.3-.4-.7-.7-1.4-.9l-1.8-.6c-1.2-.4-2.1-1.1-2.7-1.9-.7-.9-1-1.9-1-3.1s.1-1.5.4-2.1c.3-.7.7-1.2,1.2-1.7.5-.5,1-.8,1.7-1.1.6-.3,1.3-.4,2.1-.4s1.4.1,2.1.4c.6.3,1.2.6,1.6,1.1.5.5.8,1,1.1,1.7.3.7.4,1.4.4,2.1h-3.5Z"/>
                <path class="cls-1" d="M638.3,268.2v-25.6h3.7v9.1h0c.4-.6.8-1,1.4-1.4s1.2-.6,2.1-.6.9,0,1.4.2c.5.2.9.4,1.2.8.4.4.6.8.9,1.4.2.6.3,1.3.3,2.1v14h-3.7v-12.6c0-.7-.2-1.2-.5-1.6-.3-.4-.8-.6-1.3-.6s-1.2.2-1.4.6c-.3.4-.4,1.1-.4,1.9v12.3h-3.7Z"/>
                <path class="cls-1" d="M659,246.2v-3.7h3.7v3.7h-3.7ZM659,268.2v-18.3h3.7v18.3h-3.7Z"/>
                <path class="cls-1" d="M672.3,255c0-.6-.2-1.1-.6-1.4-.4-.3-.8-.5-1.3-.5s-1,.2-1.3.6-.5.8-.5,1.3,0,.7.3,1c.2.3.6.6,1.3.9l2.2.9c1.4.5,2.3,1.2,2.8,2.2.5.9.8,1.9.8,3s-.1,1.5-.4,2.1c-.3.7-.7,1.2-1.1,1.7s-1.1.9-1.7,1.2c-.7.3-1.4.4-2.2.4-1.5,0-2.7-.5-3.7-1.4-.5-.5-.9-1-1.2-1.7-.3-.7-.5-1.5-.5-2.4h3.5c0,.5.2,1,.5,1.4.3.4.8.6,1.5.6s1-.2,1.4-.5.6-.8.6-1.5-.1-.9-.4-1.3c-.3-.4-.7-.7-1.4-.9l-1.8-.6c-1.2-.4-2.1-1.1-2.7-1.9-.7-.9-1-1.9-1-3.1s.1-1.5.4-2.1c.3-.7.7-1.2,1.2-1.7.5-.5,1-.8,1.7-1.1.6-.3,1.3-.4,2.1-.4s1.4.1,2.1.4c.6.3,1.2.6,1.6,1.1.5.5.8,1,1.1,1.7.3.7.4,1.4.4,2.1h-3.5Z"/>
                <path class="cls-1" d="M692,268.2v-1.9h0c-.5.7-1,1.2-1.5,1.5-.5.4-1.2.5-2.1.5s-.9,0-1.3-.2c-.4-.1-.9-.4-1.3-.7-.4-.3-.7-.8-1-1.5s-.4-1.5-.4-2.5,0-1.9.3-2.7c.2-.8.5-1.4.9-2,.4-.5,1-.9,1.8-1.1s1.7-.4,2.8-.4h.4c.1,0,.3,0,.4,0,.1,0,.3,0,.4,0s.3,0,.5,0v-1.9c0-.6-.1-1.1-.4-1.5-.3-.4-.7-.6-1.4-.6s-.9.2-1.3.5c-.4.3-.7.8-.8,1.4h-3.6c0-1.6.6-3,1.7-4s1.1-.9,1.7-1.1c.7-.3,1.4-.4,2.3-.4s1.5.1,2.2.4c.7.2,1.3.6,1.8,1.1.5.5.9,1.1,1.2,1.8.3.7.4,1.6.4,2.5v12.7h-3.7ZM692,260.3c-.4,0-.7-.1-1-.1-.8,0-1.5.2-2,.6-.6.4-.8,1.1-.8,2s.2,1.3.5,1.7c.3.4.8.6,1.4.6s1.1-.2,1.5-.6c.3-.4.5-1,.5-1.7v-2.5Z"/>
                <path class="cls-1" d="M708.9,262.9c0,.6.2,1,.5,1.3.3.3.8.5,1.3.5s1.2-.2,1.4-.6c.2-.4.4-.8.4-1.2h3.7c0,1.6-.5,2.9-1.5,3.9-.5.5-1.1.9-1.7,1.2s-1.4.4-2.3.4-2.1-.2-2.9-.7c-.8-.5-1.4-1.1-1.9-1.9-.3-.5-.4-1-.5-1.7,0-.6-.1-1.3-.1-2.1v-6c0-.7,0-1.4.1-2.1,0-.6.3-1.2.5-1.7.4-.8,1-1.4,1.9-1.9.8-.5,1.8-.7,2.9-.7s1.6.1,2.3.4c.7.3,1.3.7,1.7,1.2,1,1.1,1.4,2.5,1.4,4.2h-3.7c0-.7-.2-1.3-.5-1.6-.3-.3-.8-.5-1.3-.5s-1,.2-1.3.5c-.3.3-.5.9-.5,1.6v7.5Z"/>
                <path class="cls-1" d="M718,256.1c0-.7,0-1.4.1-2.1,0-.6.3-1.2.5-1.7.4-.8,1-1.4,1.9-1.9.8-.5,1.8-.7,2.9-.7s2.1.2,2.9.7c.8.5,1.4,1.1,1.9,1.9.3.5.4,1,.5,1.7,0,.6.1,1.3.1,2.1v6c0,.7,0,1.4-.1,2.1,0,.6-.3,1.2-.5,1.7-.4.8-1.1,1.4-1.9,1.9-.8.5-1.8.7-2.9.7s-2.1-.2-2.9-.7c-.8-.5-1.4-1.1-1.9-1.9-.3-.5-.4-1-.5-1.7,0-.6-.1-1.3-.1-2.1v-6ZM721.7,262.6c0,.7.2,1.2.5,1.6.3.3.8.5,1.3.5s1-.2,1.3-.5c.3-.3.5-.9.5-1.6v-7.2c0-.7-.2-1.2-.5-1.6-.3-.3-.8-.5-1.3-.5s-1,.2-1.3.5c-.3.3-.5.9-.5,1.6v7.2Z"/>
                <path class="cls-1" d="M731.7,268.2v-18.3h3.7v1.8h0c.4-.6.8-1,1.4-1.4s1.2-.6,2.1-.6,1.5.2,2,.6c.5.4,1,.8,1.3,1.3.5-.5,1-.9,1.5-1.3.6-.4,1.3-.5,2.3-.5s.9,0,1.4.2c.5.2.9.4,1.3.8s.7.8.9,1.4c.2.6.4,1.3.4,2.1v14h-3.7v-12.6c0-.7-.2-1.2-.5-1.6-.3-.4-.8-.6-1.3-.6s-1.2.2-1.4.6c-.3.4-.4,1.1-.4,1.9v12.3h-3.7v-12.6c0-.7-.2-1.2-.5-1.6-.3-.4-.8-.6-1.3-.6s-1.2.2-1.4.6c-.3.4-.4,1.1-.4,1.9v12.3h-3.7Z"/>
                <path class="cls-1" d="M753,275.6v-25.6h3.7v1.7c.5-.5.9-1,1.4-1.3.5-.4,1.2-.5,2.1-.5,1.5,0,2.6.6,3.2,1.7.2.4.4.9.5,1.5s.1,1.4.1,2.4v6.9c0,1.3,0,2.3-.1,2.9-.1,1.2-.7,2.1-1.7,2.7-.5.3-1.2.5-2.1.5s-1.4-.2-1.9-.5c-.6-.3-1-.8-1.5-1.4h0v9h-3.7ZM760.3,255.9c0-.7-.1-1.3-.4-1.8-.3-.5-.7-.7-1.4-.7s-1,.2-1.3.6c-.3.4-.5,1-.5,1.6v7.1c0,.6.2,1,.5,1.4.3.4.8.6,1.3.6s1.2-.2,1.4-.6c.3-.4.4-.9.4-1.5v-6.7Z"/>
                <path class="cls-1" d="M777.6,260.4h-7.3v2.5c0,.6.2,1,.5,1.3.3.3.8.5,1.3.5s1.2-.2,1.4-.6c.2-.4.4-.8.4-1.2h3.7c0,1.6-.5,2.9-1.5,3.9-.5.5-1.1.9-1.7,1.2s-1.4.4-2.3.4-2.1-.2-2.9-.7c-.8-.5-1.4-1.1-1.9-1.9-.3-.5-.4-1-.5-1.7,0-.6-.1-1.3-.1-2.1v-6c0-.7,0-1.4.1-2.1,0-.6.3-1.2.5-1.7.4-.8,1-1.4,1.9-1.9.8-.5,1.8-.7,2.9-.7s1.6.1,2.3.4c.7.3,1.3.7,1.7,1.2,1,1.1,1.4,2.4,1.4,4.1v5ZM770.4,257.6h3.6v-2.1c0-.7-.2-1.2-.5-1.6-.3-.3-.8-.5-1.3-.5s-1,.2-1.3.5c-.3.3-.5.9-.5,1.6v2.1Z"/>
                <path class="cls-1" d="M780.3,249.9v-5.5h3.7v5.5h2.3v2.9h-2.3v10.1c0,.4,0,.8.1,1,0,.2.2.4.4.5s.4.2.7.2c.3,0,.6,0,1,0v3.5h-1.5c-.8,0-1.5-.1-2.1-.4-.6-.3-1-.6-1.3-1-.3-.4-.6-.9-.7-1.4-.2-.5-.2-1-.2-1.5v-11.1h-1.8v-2.9h1.8Z"/>
                <path class="cls-1" d="M787.7,246.2v-3.7h3.7v3.7h-3.7ZM787.7,268.2v-18.3h3.7v18.3h-3.7Z"/>
                <path class="cls-1" d="M794.4,249.9v-5.5h3.7v5.5h2.3v2.9h-2.3v10.1c0,.4,0,.8.1,1,0,.2.2.4.4.5s.4.2.7.2c.3,0,.6,0,1,0v3.5h-1.5c-.8,0-1.5-.1-2.1-.4-.6-.3-1-.6-1.3-1-.3-.4-.6-.9-.7-1.4-.2-.5-.2-1-.2-1.5v-11.1h-1.8v-2.9h1.8Z"/>
                <path class="cls-1" d="M801.7,246.2v-3.7h3.7v3.7h-3.7ZM801.7,268.2v-18.3h3.7v18.3h-3.7Z"/>
                <path class="cls-1" d="M808.1,256.1c0-.7,0-1.4.1-2.1,0-.6.3-1.2.5-1.7.4-.8,1-1.4,1.9-1.9.8-.5,1.8-.7,2.9-.7s2.1.2,2.9.7c.8.5,1.4,1.1,1.9,1.9.3.5.4,1,.5,1.7,0,.6.1,1.3.1,2.1v6c0,.7,0,1.4-.1,2.1,0,.6-.3,1.2-.5,1.7-.4.8-1.1,1.4-1.9,1.9-.8.5-1.8.7-2.9.7s-2.1-.2-2.9-.7c-.8-.5-1.4-1.1-1.9-1.9-.3-.5-.4-1-.5-1.7,0-.6-.1-1.3-.1-2.1v-6ZM811.8,262.6c0,.7.2,1.2.5,1.6.3.3.8.5,1.3.5s1-.2,1.3-.5c.3-.3.5-.9.5-1.6v-7.2c0-.7-.2-1.2-.5-1.6-.3-.3-.8-.5-1.3-.5s-1,.2-1.3.5c-.3.3-.5.9-.5,1.6v7.2Z"/>
                <path class="cls-1" d="M821.7,268.2v-18.3h3.7v1.8h0c.4-.6.8-1,1.4-1.4s1.2-.6,2.1-.6.9,0,1.4.2c.5.2.9.4,1.2.8.4.4.6.8.9,1.4.2.6.3,1.3.3,2.1v14h-3.7v-12.6c0-.7-.2-1.2-.5-1.6-.3-.4-.8-.6-1.3-.6s-1.2.2-1.4.6c-.3.4-.4,1.1-.4,1.9v12.3h-3.7Z"/>
                <path class="cls-1" d="M835.7,268.2v-3.7h3.7v3.7h-3.7Z"/>
              </g>
            </g>
          </g>
        </g>
        <path class="cls-2" d="M868.5,145.4v14.2c-1.3-1.4-2.3-2.4-5.4-2.4h-20.5l-.9,6.2c2.3-.9,5.6-1.4,8.3-1.4,16.2,0,26.1,9.8,26.1,20.2s-13.7,21.5-33,21.5-19-2.7-27.4-8.5c-.7-.5-2.3-.6-3.8-.6l16.6-11.3c2.8,4.9,7.5,7.4,14.2,7.4s13-4.3,13-8.2c0-5.6-5-9.8-15.8-9.8s-12.1,2.3-16.6,5.2l4.8-32.4h40.4Z"/>
      </g>
    </g>
  </g>
</svg>